<?xml version="1.0" encoding="UTF-8"?>
<svg xmlns="http://www.w3.org/2000/svg" viewBox="0 0 880 550">
  <defs>
    <style>
      .cls-1, .cls-2, .cls-3, .cls-4, .cls-5, .cls-6, .cls-7, .cls-8, .cls-9, .cls-10, .cls-11, .cls-12, .cls-13, .cls-14, .cls-15, .cls-16, .cls-17, .cls-18, .cls-19, .cls-20, .cls-21, .cls-22, .cls-23 {
        stroke: #4e3448;
      }

      .cls-1, .cls-2, .cls-3, .cls-5, .cls-6, .cls-8, .cls-9, .cls-10, .cls-11, .cls-12, .cls-13, .cls-14, .cls-15, .cls-16, .cls-17, .cls-18, .cls-19, .cls-21, .cls-22, .cls-23 {
        stroke-linejoin: round;
      }

      .cls-1, .cls-5, .cls-8, .cls-11, .cls-12, .cls-14, .cls-16, .cls-17, .cls-18 {
        fill: #e8d8cd;
      }

      .cls-1, .cls-17 {
        stroke-width: .4px;
      }

      .cls-2, .cls-13, .cls-19, .cls-23 {
        stroke-width: .52px;
      }

      .cls-2, .cls-15 {
        fill: #f9a739;
      }

      .cls-3 {
        stroke-width: .85px;
      }

      .cls-3, .cls-7, .cls-10, .cls-22 {
        fill: none;
      }

      .cls-4, .cls-7 {
        stroke-width: .81px;
      }

      .cls-4, .cls-7, .cls-20 {
        stroke-miterlimit: 10;
      }

      .cls-4, .cls-20 {
        fill: #f7f3ef;
      }

      .cls-5, .cls-10, .cls-11 {
        stroke-width: .48px;
      }

      .cls-5, .cls-16, .cls-17, .cls-21 {
        stroke-linecap: round;
      }

      .cls-6, .cls-8, .cls-9, .cls-15 {
        stroke-width: .5px;
      }

      .cls-6, .cls-13 {
        fill: #8b5472;
      }

      .cls-9, .cls-19, .cls-21 {
        fill: #beab9b;
      }

      .cls-24 {
        fill: #f5f0ec;
      }

      .cls-12 {
        stroke-width: .45px;
      }

      .cls-14 {
        stroke-width: .38px;
      }

      .cls-16, .cls-21 {
        stroke-width: .47px;
      }

      .cls-18 {
        stroke-width: .37px;
      }

      .cls-20 {
        stroke-width: .85px;
      }

      .cls-22 {
        stroke-width: .35px;
      }

      .cls-23 {
        fill: #fff;
      }
    </style>
  </defs>
  <g id="Layer_2" data-name="Layer 2">
    <rect class="cls-24" x="-24.48" y="-23.94" width="928.95" height="597.89"/>
  </g>
  <g id="Layer_1" data-name="Layer 1">
    <g>
      <line class="cls-11" x1="647.64" y1="459.27" x2="330.86" y2="276.38"/>
      <line class="cls-11" x1="488.54" y1="519.78" x2="236.62" y2="374.33"/>
      <line class="cls-11" x1="524.59" y1="255.63" x2="229.82" y2="425.82"/>
      <line class="cls-11" x1="703.98" y1="351.31" x2="409.21" y2="521.49"/>
      <path class="cls-7" d="m393.19,303.95l-30.71-20.7c-3.49-2.34-10.1-1.32-11.02,1.71l-2.85,9.33c-.55,1.81-3.34,3.09-6.52,2.99l-17.64-.53c-4.29-.13-7.52,2.19-6.4,4.59l7.89,16.74c1.17,2.49-2.36,4.87-6.8,4.57l-18.92-1.28c-1.92-.13-3.83.25-5.19,1.04l-24.73,14.28"/>
      <g>
        <path class="cls-11" d="m491.58,329.73l11.36-19.87-55.39-31.84s-.1-.06-.15-.08l-.11-.06h0c-1.45-.72-3.4-.56-5.56.68-4.48,2.59-8.12,8.86-8.12,14.01,0,2.46.84,4.21,2.2,5.09h0s.1.07.1.07c.05.03.11.06.16.09l55.51,31.92Z"/>
        <ellipse class="cls-19" cx="497.26" cy="319.8" rx="11.45" ry="6.61" transform="translate(-29.78 587.68) rotate(-59.69)"/>
      </g>
      <g>
        <path class="cls-11" d="m566.45,373.23l11.36-19.87-55.39-31.84s-.1-.06-.15-.08l-.11-.06h0c-1.45-.72-3.4-.56-5.56.68-4.48,2.59-8.12,8.86-8.12,14.01,0,2.46.84,4.21,2.2,5.09h0s.1.07.1.07c.05.03.11.06.16.09l55.51,31.92Z"/>
        <ellipse class="cls-19" cx="572.12" cy="363.29" rx="11.45" ry="6.61" transform="translate(-30.25 673.85) rotate(-59.69)"/>
      </g>
      <polygon class="cls-11" points="486.29 443.62 322.93 349.3 419.74 293.4 583.1 387.72 486.29 443.62"/>
      <polygon class="cls-11" points="486.3 434.83 322.93 340.51 419.74 284.61 583.11 378.93 486.3 434.83"/>
      <polygon class="cls-19" points="560.01 365.65 462.55 421.18 486.29 434.84 583.1 378.94 560.01 365.65"/>
      <polygon class="cls-19" points="322.93 340.52 322.93 349.3 486.29 443.62 486.29 434.84 322.93 340.52"/>
      <polygon class="cls-19" points="583.1 378.94 583.1 387.72 486.29 443.62 486.29 434.84 583.1 378.94"/>
      <g>
        <polygon class="cls-19" points="583.5 366.3 420.14 271.98 420.14 160.19 583.5 254.51 583.5 366.3"/>
        <polygon class="cls-11" points="447.09 144.84 420.14 160.19 583.5 254.51 610.46 239.17 447.09 144.84"/>
        <polygon class="cls-11" points="610.46 350.95 583.5 366.3 583.5 254.51 610.46 239.17 610.46 350.95"/>
        <polygon class="cls-23" points="573.55 349.16 431.01 266.84 431.01 179.58 573.55 261.89 573.55 349.16"/>
      </g>
      <g>
        <polygon class="cls-11" points="464.6 330.53 409.96 298.99 419.63 293.4 474.27 324.95 464.6 330.53"/>
        <polygon class="cls-19" points="409.96 298.99 409.96 302.75 464.6 334.3 464.6 330.53 409.96 298.99"/>
        <polygon class="cls-19" points="474.27 324.95 474.27 328.72 464.6 334.3 464.6 330.53 474.27 324.95"/>
      </g>
      <g>
        <polygon class="cls-11" points="448.23 341.63 393.58 310.08 403.25 304.5 457.9 336.05 448.23 341.63"/>
        <polygon class="cls-19" points="393.58 310.08 393.58 313.85 448.23 345.4 448.23 341.63 393.58 310.08"/>
        <polygon class="cls-19" points="457.9 336.05 457.9 339.82 448.23 345.4 448.23 341.63 457.9 336.05"/>
      </g>
      <g>
        <polygon class="cls-11" points="431.85 352.73 377.21 321.18 386.88 315.6 441.52 347.15 431.85 352.73"/>
        <polygon class="cls-19" points="377.21 321.18 377.21 324.95 431.85 356.5 431.85 352.73 377.21 321.18"/>
        <polygon class="cls-19" points="441.52 347.15 441.52 350.92 431.85 356.5 431.85 352.73 441.52 347.15"/>
      </g>
      <g>
        <polygon class="cls-11" points="486.66 343.2 476.26 337.24 485.93 331.66 496.33 337.62 486.66 343.2"/>
        <polygon class="cls-19" points="476.26 337.24 476.26 341.01 486.66 346.97 486.66 343.2 476.26 337.24"/>
        <polygon class="cls-19" points="496.33 337.62 496.33 341.39 486.66 346.97 486.66 343.2 496.33 337.62"/>
      </g>
      <g>
        <polygon class="cls-11" points="506.44 354.61 496.05 348.64 505.72 343.06 516.11 349.02 506.44 354.61"/>
        <polygon class="cls-19" points="496.05 348.64 496.05 352.41 506.44 358.37 506.44 354.61 496.05 348.64"/>
        <polygon class="cls-19" points="516.11 349.02 516.11 352.79 506.44 358.37 506.44 354.61 516.11 349.02"/>
      </g>
      <g>
        <polygon class="cls-11" points="526.23 366.01 515.83 360.05 525.5 354.47 535.9 360.43 526.23 366.01"/>
        <polygon class="cls-19" points="515.83 360.05 515.83 363.82 526.23 369.78 526.23 366.01 515.83 360.05"/>
        <polygon class="cls-19" points="535.9 360.43 535.9 364.2 526.23 369.78 526.23 366.01 535.9 360.43"/>
      </g>
      <g>
        <polygon class="cls-11" points="546.02 377.41 535.62 371.45 545.29 365.87 555.69 371.83 546.02 377.41"/>
        <polygon class="cls-19" points="535.62 371.45 535.62 375.22 546.02 381.18 546.02 377.41 535.62 371.45"/>
        <polygon class="cls-19" points="555.69 371.83 555.69 375.6 546.02 381.18 546.02 377.41 555.69 371.83"/>
      </g>
      <g>
        <polygon class="cls-11" points="468.9 353.45 458.5 347.49 468.17 341.91 478.57 347.87 468.9 353.45"/>
        <polygon class="cls-19" points="458.5 347.49 458.5 351.26 468.9 357.22 468.9 353.45 458.5 347.49"/>
        <polygon class="cls-19" points="478.57 347.87 478.57 351.64 468.9 357.22 468.9 353.45 478.57 347.87"/>
      </g>
      <g>
        <polygon class="cls-11" points="488.68 364.86 478.29 358.9 487.96 353.32 498.36 359.28 488.68 364.86"/>
        <polygon class="cls-19" points="478.29 358.9 478.29 362.67 488.68 368.63 488.68 364.86 478.29 358.9"/>
        <polygon class="cls-19" points="498.36 359.28 498.36 363.04 488.68 368.63 488.68 364.86 498.36 359.28"/>
      </g>
      <g>
        <polygon class="cls-11" points="508.47 376.26 498.07 370.3 507.74 364.72 518.14 370.68 508.47 376.26"/>
        <polygon class="cls-19" points="498.07 370.3 498.07 374.07 508.47 380.03 508.47 376.26 498.07 370.3"/>
        <polygon class="cls-19" points="518.14 370.68 518.14 374.45 508.47 380.03 508.47 376.26 518.14 370.68"/>
      </g>
      <g>
        <polygon class="cls-11" points="528.26 387.67 517.86 381.71 527.53 376.12 537.93 382.08 528.26 387.67"/>
        <polygon class="cls-19" points="517.86 381.71 517.86 385.48 528.26 391.44 528.26 387.67 517.86 381.71"/>
        <polygon class="cls-19" points="537.93 382.08 537.93 385.85 528.26 391.44 528.26 387.67 537.93 382.08"/>
      </g>
      <g>
        <polygon class="cls-11" points="451.06 363.75 440.66 357.79 450.33 352.21 460.73 358.17 451.06 363.75"/>
        <polygon class="cls-19" points="440.66 357.79 440.66 361.56 451.06 367.52 451.06 363.75 440.66 357.79"/>
        <polygon class="cls-19" points="460.73 358.17 460.73 361.94 451.06 367.52 451.06 363.75 460.73 358.17"/>
      </g>
      <g>
        <polygon class="cls-11" points="470.85 375.16 460.45 369.2 470.12 363.61 480.52 369.58 470.85 375.16"/>
        <polygon class="cls-19" points="460.45 369.2 460.45 372.97 470.85 378.93 470.85 375.16 460.45 369.2"/>
        <polygon class="cls-19" points="480.52 369.58 480.52 373.34 470.85 378.93 470.85 375.16 480.52 369.58"/>
      </g>
      <g>
        <polygon class="cls-11" points="490.63 386.56 480.24 380.6 489.91 375.02 500.3 380.98 490.63 386.56"/>
        <polygon class="cls-19" points="480.24 380.6 480.24 384.37 490.63 390.33 490.63 386.56 480.24 380.6"/>
        <polygon class="cls-19" points="500.3 380.98 500.3 384.75 490.63 390.33 490.63 386.56 500.3 380.98"/>
      </g>
      <g>
        <polygon class="cls-11" points="510.42 397.97 500.02 392.01 509.69 386.42 520.09 392.38 510.42 397.97"/>
        <polygon class="cls-19" points="500.02 392.01 500.02 395.78 510.42 401.74 510.42 397.97 500.02 392.01"/>
        <polygon class="cls-19" points="520.09 392.38 520.09 396.15 510.42 401.74 510.42 397.97 520.09 392.38"/>
      </g>
      <polygon class="cls-23" points="404.68 373.23 350.04 341.68 371.09 329.5 425.74 361.05 404.68 373.23"/>
      <g>
        <path class="cls-2" d="m457.09,384.96h0v-7.29h-30.58v7.26h0v.03h0c.02,2.25,1.53,4.5,4.51,6.22,5.99,3.46,15.67,3.48,21.63.04,2.99-1.73,4.47-3.99,4.44-6.26Z"/>
        <ellipse class="cls-1" cx="441.8" cy="377.67" rx="8.83" ry="15.29" transform="translate(61.74 817.41) rotate(-89.69)"/>
        <line class="cls-17" x1="447.86" y1="373.81" x2="452.03" y2="371.14"/>
      </g>
      <g>
        <path class="cls-2" d="m495.69,407.23h0v-7.29h-30.58v7.26h0v.03h0c.02,2.25,1.53,4.5,4.51,6.22,5.99,3.46,15.67,3.48,21.63.04,2.99-1.73,4.47-3.99,4.44-6.26Z"/>
        <ellipse class="cls-1" cx="480.4" cy="399.94" rx="8.83" ry="15.29" transform="translate(77.86 878.16) rotate(-89.69)"/>
        <path class="cls-2" d="m494.32,396.33l-13.92,3.61,5.54-8.21c3.5.79,6.48,2.28,8.38,4.6Z"/>
      </g>
      <polygon class="cls-11" points="573.55 276.91 431.01 194.62 431.01 179.58 573.55 261.89 573.55 276.91"/>
      <g>
        <polygon class="cls-11" points="565.43 335.4 520.86 309.66 520.86 255.03 565.43 280.76 565.43 335.4"/>
        <polygon class="cls-11" points="565.43 293.05 520.86 267.31 520.86 255.03 565.43 280.76 565.43 293.05"/>
        <line class="cls-11" x1="543.15" y1="274.04" x2="551.25" y2="278.72"/>
        <line class="cls-11" x1="554.54" y1="280.62" x2="562.65" y2="285.3"/>
      </g>
      <g>
        <g>
          <line class="cls-5" x1="551.41" y1="293.49" x2="557.74" y2="304.41"/>
          <line class="cls-5" x1="557.74" y1="297.15" x2="551.41" y2="300.76"/>
          <ellipse class="cls-2" cx="554.57" cy="316.42" rx="2.58" ry="4.46" transform="translate(-83.88 323.14) rotate(-30.31)"/>
        </g>
        <line class="cls-5" x1="544.53" y1="293.15" x2="523.9" y2="281.24"/>
        <line class="cls-5" x1="544.53" y1="305.56" x2="523.9" y2="293.65"/>
        <line class="cls-5" x1="544.53" y1="300.41" x2="523.9" y2="288.51"/>
        <line class="cls-5" x1="544.83" y1="310.88" x2="524.2" y2="298.97"/>
      </g>
      <g>
        <g>
          <polygon class="cls-9" points="553.26 166.5 545.77 170.86 545.77 122.88 553.26 118.52 553.26 166.5"/>
          <polygon class="cls-8" points="545.77 170.86 533.4 163.72 533.4 115.74 545.77 122.88 545.77 170.86"/>
          <polygon class="cls-9" points="545.77 122.88 533.4 115.74 540.89 111.38 553.26 118.51 545.77 122.88"/>
        </g>
        <g>
          <polygon class="cls-9" points="577.35 191.1 569.86 195.46 569.86 165.42 577.35 161.05 577.35 191.1"/>
          <polygon class="cls-8" points="569.86 195.46 557.5 188.32 557.5 158.28 569.86 165.42 569.86 195.46"/>
          <polygon class="cls-9" points="569.86 165.41 557.5 158.28 564.99 153.92 577.36 161.05 569.86 165.41"/>
        </g>
        <g>
          <polygon class="cls-9" points="601.45 211.7 593.96 216.06 593.96 169.78 601.45 165.42 601.45 211.7"/>
          <polygon class="cls-8" points="593.96 216.06 581.59 208.92 581.59 162.64 593.96 169.78 593.96 216.06"/>
          <polygon class="cls-9" points="593.96 169.78 581.59 162.64 589.08 158.28 601.45 165.41 593.96 169.78"/>
        </g>
        <g>
          <polygon class="cls-9" points="625.54 197.73 618.05 202.09 618.05 156.19 625.54 151.83 625.54 197.73"/>
          <polygon class="cls-8" points="618.05 202.09 605.69 194.95 605.69 149.05 618.05 156.19 618.05 202.09"/>
          <polygon class="cls-9" points="618.06 156.18 605.69 149.05 613.18 144.69 625.55 151.82 618.06 156.18"/>
        </g>
        <g>
          <polygon class="cls-9" points="649.64 239.36 642.15 243.73 642.15 195.75 649.64 191.38 649.64 239.36"/>
          <polygon class="cls-8" points="642.15 243.73 629.78 236.59 629.78 188.61 642.15 195.75 642.15 243.73"/>
          <polygon class="cls-9" points="642.15 195.74 629.78 188.61 637.27 184.25 649.64 191.38 642.15 195.74"/>
        </g>
      </g>
      <g>
        <ellipse class="cls-3" cx="349.51" cy="69.12" rx="3.82" ry="6.62" transform="translate(12.9 185.84) rotate(-30.31)"/>
        <ellipse class="cls-3" cx="367.97" cy="79.78" rx="3.82" ry="6.62" transform="translate(10.04 196.62) rotate(-30.31)"/>
        <ellipse class="cls-3" cx="386.44" cy="90.44" rx="3.82" ry="6.62" transform="translate(7.18 207.39) rotate(-30.31)"/>
        <ellipse class="cls-3" cx="404.9" cy="101.1" rx="3.82" ry="6.62" transform="translate(4.33 218.17) rotate(-30.31)"/>
        <ellipse class="cls-3" cx="349.51" cy="85.7" rx="3.82" ry="6.62" transform="translate(4.53 188.11) rotate(-30.31)"/>
        <ellipse class="cls-3" cx="367.97" cy="96.36" rx="3.82" ry="6.62" transform="translate(1.67 198.88) rotate(-30.31)"/>
        <ellipse class="cls-3" cx="386.44" cy="107.02" rx="3.82" ry="6.62" transform="translate(-1.19 209.66) rotate(-30.31)"/>
        <ellipse class="cls-3" cx="404.9" cy="117.68" rx="3.82" ry="6.62" transform="translate(-4.04 220.44) rotate(-30.31)"/>
        <ellipse class="cls-3" cx="349.51" cy="102.28" rx="3.82" ry="6.62" transform="translate(-3.84 190.37) rotate(-30.31)"/>
        <ellipse class="cls-3" cx="367.97" cy="112.94" rx="3.82" ry="6.62" transform="translate(-6.7 201.15) rotate(-30.31)"/>
        <ellipse class="cls-3" cx="386.44" cy="123.6" rx="3.82" ry="6.62" transform="translate(-9.55 211.93) rotate(-30.31)"/>
        <ellipse class="cls-3" cx="404.9" cy="134.26" rx="3.82" ry="6.62" transform="translate(-12.41 222.7) rotate(-30.31)"/>
        <ellipse class="cls-3" cx="349.51" cy="118.86" rx="3.82" ry="6.62" transform="translate(-12.21 192.64) rotate(-30.31)"/>
        <ellipse class="cls-3" cx="367.97" cy="129.52" rx="3.82" ry="6.62" transform="translate(-15.07 203.42) rotate(-30.31)"/>
        <ellipse class="cls-3" cx="386.44" cy="140.18" rx="3.82" ry="6.62" transform="translate(-17.92 214.19) rotate(-30.31)"/>
        <ellipse class="cls-3" cx="404.9" cy="150.84" rx="3.82" ry="6.62" transform="translate(-20.78 224.97) rotate(-30.31)"/>
      </g>
      <g>
        <polygon class="cls-14" points="486.38 473.51 440.81 447.2 423.27 457.33 468.85 483.64 486.49 493.82 504.03 483.7 549.31 457.55 531.67 447.37 486.38 473.51"/>
        <polygon class="cls-14" points="486.38 464.16 440.81 437.85 423.27 447.97 468.85 474.28 486.49 484.47 504.03 474.35 549.31 448.2 531.67 438.01 486.38 464.16"/>
        <polygon class="cls-19" points="423.27 447.97 423.27 457.33 486.49 493.82 486.49 484.47 423.27 447.97"/>
        <polygon class="cls-19" points="549.31 448.2 549.31 457.55 486.49 493.82 486.49 484.47 549.31 448.2"/>
        <ellipse class="cls-13" cx="441.74" cy="448.2" rx="2.93" ry="5.08" transform="translate(-8.85 887.5) rotate(-89.69)"/>
        <polygon class="cls-14" points="486.49 484.47 486.38 464.16 531.67 438.01 549.31 448.2 486.49 484.47"/>
        <ellipse class="cls-13" cx="531.67" cy="448.2" rx="2.93" ry="5.08" transform="translate(80.59 977.44) rotate(-89.69)"/>
      </g>
      <polygon class="cls-19" points="605.95 345.95 590.92 354.62 590.92 347.4 605.95 338.73 605.95 345.95"/>
      <polygon class="cls-19" points="605.95 333.14 590.92 341.81 590.92 334.59 605.95 325.92 605.95 333.14"/>
      <polygon class="cls-11" points="610.46 345.95 595.42 354.62 590.92 347.4 605.95 338.73 610.46 345.95"/>
      <polygon class="cls-11" points="610.46 333.14 595.42 341.81 590.92 334.59 605.95 325.92 610.46 333.14"/>
      <polyline class="cls-10" points="568.73 229.19 598.15 246.17 598.15 284.07"/>
      <ellipse class="cls-13" cx="570.96" cy="230.54" rx="3.99" ry="6.9" transform="translate(337.32 800.24) rotate(-89.69)"/>
      <ellipse class="cls-13" cx="551.25" cy="220.08" rx="3.99" ry="6.9" transform="translate(328.18 770.13) rotate(-89.69)"/>
      <ellipse class="cls-13" cx="531.54" cy="209.62" rx="3.99" ry="6.9" transform="translate(319.05 740.02) rotate(-89.69)"/>
      <ellipse class="cls-13" cx="511.84" cy="199.16" rx="3.99" ry="6.9" transform="translate(309.91 709.91) rotate(-89.69)"/>
      <ellipse class="cls-13" cx="598.13" cy="285.3" rx="6.9" ry="3.99" transform="translate(49.96 657.68) rotate(-59.69)"/>
      <polygon class="cls-19" points="468.33 180.74 452.63 171.68 468.23 162.67 483.94 171.73 468.33 180.74"/>
      <g>
        <polygon class="cls-8" points="469.3 153.53 455.87 145.77 469.29 138.02 482.72 145.77 469.3 153.53"/>
        <polygon class="cls-8" points="482.72 161.18 469.29 168.94 469.29 153.53 482.72 145.77 482.72 161.18"/>
        <polygon class="cls-6" points="469.29 168.94 455.86 161.18 455.86 145.77 469.29 153.53 469.29 168.94"/>
        <polygon class="cls-9" points="480.17 159.73 471.84 164.54 471.84 154.98 480.17 150.17 480.17 159.73"/>
        <polygon class="cls-15" points="459.53 163.3 459.53 147.89 472.84 140.07 469.29 138.02 455.86 145.77 455.86 161.18 459.53 163.3"/>
      </g>
      <g>
        <polygon class="cls-8" points="469.3 107.9 455.87 100.15 469.29 92.4 482.72 100.15 469.3 107.9"/>
        <polygon class="cls-8" points="482.72 115.56 469.29 123.31 469.29 107.9 482.72 100.15 482.72 115.56"/>
        <polygon class="cls-6" points="469.29 123.31 455.86 115.56 455.86 100.15 469.29 107.9 469.29 123.31"/>
        <polygon class="cls-9" points="480.17 114.11 471.84 118.91 471.84 109.36 480.17 104.55 480.17 114.11"/>
        <polygon class="cls-15" points="459.53 117.68 459.53 102.27 472.84 94.44 469.29 92.4 455.86 100.15 455.86 115.56 459.53 117.68"/>
      </g>
      <g>
        <polygon class="cls-8" points="469.3 54.93 455.87 47.17 469.29 39.42 482.72 47.18 469.3 54.93"/>
        <polygon class="cls-8" points="482.72 62.59 469.29 70.34 469.29 54.93 482.72 47.18 482.72 62.59"/>
        <polygon class="cls-6" points="469.29 70.34 455.86 62.59 455.86 47.18 469.29 54.93 469.29 70.34"/>
        <polygon class="cls-9" points="480.17 61.13 471.84 65.94 471.84 56.38 480.17 51.57 480.17 61.13"/>
        <polyline class="cls-15" points="459.53 64.7 459.53 49.29 472.84 41.47 469.29 39.42 455.86 47.18 455.86 62.59 459.53 64.7 459.53 73.26"/>
      </g>
      <line class="cls-12" x1="463.53" y1="130.31" x2="463.53" y2="136.67"/>
      <line class="cls-12" x1="478.63" y1="120.88" x2="478.63" y2="134.28"/>
      <line class="cls-12" x1="469.29" y1="74.14" x2="469.29" y2="91.29"/>
      <line class="cls-12" x1="475.55" y1="70.47" x2="475.55" y2="77.81"/>
      <g>
        <path class="cls-19" d="m285.43,339.38h-5.29c-.69-.52-1.43-1.03-2.25-1.5l-3.15-1.82c-11.17-6.45-30.68-5.64-43.58,1.81l-36.86,21.28c-2.82,1.63-5.08,3.43-6.79,5.33h-3.88v9.46h.02c.22,3.89,2.69,7.58,7.52,10.37l3.15,1.82c11.17,6.45,30.68,5.64,43.58-1.81l36.86-21.28c7.04-4.07,10.65-9.27,10.66-14.2h0v-9.45Z"/>
        <path class="cls-18" d="m194.32,376.52l-3.15-1.82c-11.17-6.45-9.77-17.71,3.13-25.16l36.86-21.28c12.9-7.45,32.41-8.26,43.58-1.81l3.15,1.82c11.17,6.45,9.77,17.71-3.13,25.16l-36.86,21.28c-12.9,7.45-32.41,8.26-43.58,1.81Z"/>
        <path class="cls-13" d="m277,339.83s0,0,0,0c0-12.66-10.26-22.92-22.92-22.92s-22.75,10.1-22.91,22.63c0,.1,0,.19,0,.29,0,0,0,0,0,0h0c.04,3.37,2.29,6.75,6.76,9.33,8.98,5.18,23.49,5.21,32.41.06,4.48-2.59,6.7-5.99,6.66-9.39Z"/>
        <path class="cls-22" d="m231.44,336.28c.77,2.63,2.97,5.16,6.5,7.2,8.97,5.18,23.47,5.21,32.39.06,3.56-2.05,5.69-4.62,6.39-7.3"/>
        <path class="cls-22" d="m258.18,317.31s-20.24,4.39-20.24,26.18"/>
      </g>
      <g>
        <g>
          <path class="cls-23" d="m469.82,217.04s-9.65,5.6-12.49,7.24h0c-5.66,3.27-10.25,11.18-10.25,17.67v14.04h.02v8.05c0,6.49-4.59,14.41-10.25,17.67h0c-2.79,1.61-5.31,1.79-7.16.79l80.34,46.38c1.85,1,4.37.82,7.16-.79,5.66-3.27,10.25-11.18,10.25-17.67v-18.22h-.02v-3.87c0-6.49,3.56-13.48,10.25-17.67h0c2.85-1.65,12.52-7.22,12.52-7.22l-80.36-46.39Z"/>
          <path class="cls-7" d="m505.67,321.42c5.66-3.27,10.25-11.18,10.25-17.67v-18.22h-.02v-3.87c0-6.49,3.56-13.48,10.25-17.67h0c2.85-1.65,12.52-7.22,12.52-7.22"/>
          <path class="cls-19" d="m510,328.84c-1.87-1.05-3.02-3.33-3.02-6.59v-68.8c0-3.22-1.13-5.49-2.96-6.56l-80.36-46.39c1.85,1.06,2.99,3.33,2.99,6.57v68.8c0,3.23,1.14,5.51,2.98,6.57l80.38,46.4Z"/>
          <path class="cls-23" d="m423.64,200.5c-1.86-1.07-4.42-.91-7.26.73h0c-5.66,3.27-10.25,11.18-10.25,17.67v43.58h-.01s0,60.99,0,60.99c0,6.49-4.59,14.4-10.25,17.67h0c-2.79,1.61-5.31,1.79-7.16.79l80.34,46.38c1.85,1,4.37.82,7.16-.79h0c5.66-3.27,10.25-11.18,10.25-17.67v-43.44h.01s0-61.12,0-61.12c0-6.49,4.59-14.41,10.25-17.67h0c2.85-1.65,5.43-1.8,7.28-.72l-80.36-46.39Z"/>
          <path class="cls-19" d="m468.98,388.25c-1.87-1.05-3.02-3.33-3.02-6.59v-49.37c0-3.22-1.13-5.49-2.96-6.56l-80.36-46.39c1.85,1.06,2.99,3.33,2.99,6.57v49.37c0,3.23,1.14,5.51,2.98,6.57l80.38,46.4Z"/>
          <g>
            <ellipse class="cls-2" cx="423.81" cy="246.46" rx="5.01" ry="8.67" transform="translate(-66.45 247.58) rotate(-30.31)"/>
            <ellipse class="cls-2" cx="446.36" cy="259.82" rx="5.01" ry="8.67" transform="translate(-70.11 260.79) rotate(-30.31)"/>
            <line class="cls-4" x1="461.53" y1="261.89" x2="472.59" y2="280.97"/>
            <line class="cls-4" x1="472.59" y1="268.28" x2="461.53" y2="274.59"/>
          </g>
          <line class="cls-4" x1="423.84" y1="216.13" x2="475.66" y2="246.46"/>
        </g>
        <polygon class="cls-13" points="472.59 314.46 419.35 283.57 419.35 268.71 472.59 299.61 472.59 314.46"/>
        <path class="cls-23" d="m382.66,279.35c-1.86-1.07-4.42-.91-7.26.73h0c-5.66,3.27-10.25,11.18-10.25,17.67v69.75c0,8.34-4.44,16.04-11.66,20.22l-87.88,50.85,80.22,46.31,87.98-50.79c7.23-4.17,11.68-11.89,11.68-20.23v-69.73c0-6.49,4.59-14.41,10.25-17.67h0c2.85-1.65,5.43-1.8,7.28-.72l-80.36-46.39Z"/>
        <polygon class="cls-13" points="319.61 455.23 370.35 426.21 396.89 441.49 346.15 470.51 319.61 455.23"/>
        <g>
          <ellipse class="cls-2" cx="420.14" cy="381.6" rx="5.21" ry="9.03" transform="translate(-135.16 264.2) rotate(-30.31)"/>
          <ellipse class="cls-2" cx="386.12" cy="364.35" rx="5.21" ry="9.03" transform="translate(-131.1 244.68) rotate(-30.31)"/>
          <line class="cls-4" x1="380.75" y1="325.25" x2="392.27" y2="345.1"/>
          <line class="cls-4" x1="392.27" y1="331.89" x2="380.75" y2="338.46"/>
          <line class="cls-4" x1="414.38" y1="343.33" x2="425.89" y2="363.18"/>
          <line class="cls-4" x1="425.89" y1="349.97" x2="414.38" y2="356.54"/>
          <line class="cls-4" x1="410.28" y1="341.82" x2="398.77" y2="348.38"/>
        </g>
        <line class="cls-4" x1="418.26" y1="322.42" x2="434.51" y2="331.93"/>
        <line class="cls-4" x1="380.73" y1="300.45" x2="405.02" y2="314.67"/>
        <line class="cls-20" x1="411.52" y1="436.4" x2="353.6" y2="403.28"/>
        <line class="cls-20" x1="353.6" y1="425.04" x2="334.16" y2="413.92"/>
        <line class="cls-20" x1="340.22" y1="432.91" x2="320.77" y2="421.79"/>
      </g>
      <g>
        <polygon class="cls-16" points="248.06 436.34 239.09 427.31 220.97 427.37 211.82 436.45 220.79 445.49 238.92 445.43 248.06 436.34"/>
        <polygon class="cls-16" points="248.06 428.14 239.09 419.11 220.97 419.17 211.82 428.26 220.79 437.29 238.92 437.23 248.06 428.14"/>
        <polygon class="cls-21" points="211.82 428.26 211.82 436.45 220.79 445.49 220.79 437.29 211.82 428.26"/>
        <polygon class="cls-21" points="238.92 437.23 238.92 445.43 248.06 436.34 248.06 428.14 238.92 437.23"/>
        <polygon class="cls-21" points="220.79 437.29 238.92 437.23 238.92 445.43 220.79 445.49 220.79 437.29"/>
        <ellipse class="cls-13" cx="230.33" cy="428.27" rx="4.74" ry="8.22" transform="translate(-199.19 656.28) rotate(-89.69)"/>
      </g>
      <g>
        <polygon class="cls-16" points="261.61 469.88 252.64 460.85 234.51 460.9 225.37 469.99 234.34 479.03 252.47 478.97 261.61 469.88"/>
        <polygon class="cls-16" points="261.61 461.68 252.64 452.65 234.51 452.7 225.37 461.79 234.34 470.83 252.47 470.77 261.61 461.68"/>
        <polygon class="cls-21" points="225.37 461.79 225.37 469.99 234.34 479.03 234.34 470.83 225.37 461.79"/>
        <polygon class="cls-21" points="252.47 470.77 252.47 478.97 261.61 469.88 261.61 461.68 252.47 470.77"/>
        <polygon class="cls-21" points="234.34 470.83 252.47 470.77 252.47 478.97 234.34 479.03 234.34 470.83"/>
        <ellipse class="cls-13" cx="243.88" cy="461.81" rx="4.74" ry="8.22" transform="translate(-219.25 703.18) rotate(-89.69)"/>
      </g>
      <g>
        <polygon class="cls-16" points="226.7 451.43 217.73 442.4 199.6 442.45 190.46 451.54 199.43 460.58 217.56 460.52 226.7 451.43"/>
        <polygon class="cls-16" points="226.7 443.23 217.73 434.2 199.6 434.25 190.46 443.34 199.43 452.38 217.56 452.32 226.7 443.23"/>
        <polygon class="cls-21" points="190.46 443.34 190.46 451.54 199.43 460.58 199.43 452.38 190.46 443.34"/>
        <polygon class="cls-21" points="217.56 452.32 217.56 460.52 226.7 451.43 226.7 443.23 217.56 452.32"/>
        <polygon class="cls-21" points="199.43 452.38 217.56 452.32 217.56 460.52 199.43 460.58 199.43 452.38"/>
        <ellipse class="cls-13" cx="208.97" cy="443.36" rx="4.74" ry="8.22" transform="translate(-235.52 649.92) rotate(-89.69)"/>
      </g>
      <path class="cls-18" d="m237.68,374.83l-43.59-25.17c-12.68,7.45-14,18.61-2.9,25.02l3.15,1.82c11.1,6.41,30.44,5.65,43.34-1.67Z"/>
      <ellipse class="cls-2" cx="214.32" cy="361.36" rx="10.37" ry="17.97" transform="translate(-148.2 573.72) rotate(-89.69)"/>
      <line class="cls-17" x1="486.46" y1="396.08" x2="490.63" y2="393.41"/>
      <g>
        <g>
          <path class="cls-19" d="m204,348.33l4.17-.94,2.38,2.3c2.72-.31,5.6-.05,8.2.34l2.37-2.05,4.06,1.06-.15,2.82c1.81.8,3.29,1.83,4.53,3.02l3.83-.38,1.65,2.41v4.46l-2.57.95c0,.14,0,.29,0,.43,0,.05,0,.09,0,.14l3.07,1.19c-.06-.06,0,4.46,0,4.46l-1.79,2.35-3.95-.58c-1.36,1.25-3.07,2.33-5.3,3.16l-.07,2.25-4.16.93-1.95-1.75c-2.89.37-5.73.46-8.48.05l-2.14,1.82-4.15-1.03v-2.38c-2.14-.86-3.95-1.94-5.31-3.29l-4.07.48-1.65-2.41v-4.46l3.33-1.16s0-.03,0-.05c-.01-.16-.01-.33,0-.5,0-.12-.01-.24,0-.36l-2.52-.99v-4.46l1.76-2.39,3.95.5c1.34-1.16,3.02-2.25,5.1-3.06l-.15-2.87Z"/>
          <path class="cls-18" d="m220.27,372.18l4.17-.94-.66-2.08c2.48-.86,4.55-1.96,6.03-3.32l3.95.57,1.79-2.35-3.41-1.33c.63-1.52.32-3.05-.31-4.65l3.22-1.19-1.65-2.41-3.83.38c-1.45-1.37-3.21-2.55-5.45-3.39l1.07-2.44-4.07-1.05-2.38,2.05c-2.59-.38-5.47-.65-8.2-.34l-2.38-2.3-4.17.94.95,2.58c-2.45.82-4.4,2.04-5.9,3.35l-3.95-.5-1.77,2.39,3.33,1.31c-.72,1.56-1.13,3.29-.53,4.94l-3.61,1.25,1.65,2.41,4.07-.48c1.49,1.48,3.7,2.66,6.09,3.56l-.78,2.12,4.15,1.04,2.14-1.82c2.75.41,5.59.32,8.48-.05l1.95,1.75Z"/>
          <line class="cls-18" x1="207.7" y1="376.75" x2="207.7" y2="372.3"/>
          <line class="cls-18" x1="209.84" y1="374.93" x2="209.84" y2="370.48"/>
          <line class="cls-18" x1="220.27" y1="376.64" x2="220.27" y2="372.18"/>
          <line class="cls-18" x1="218.32" y1="374.88" x2="218.32" y2="370.43"/>
          <line class="cls-18" x1="224.44" y1="375.7" x2="224.44" y2="371.24"/>
          <line class="cls-18" x1="233.75" y1="370.87" x2="233.75" y2="366.41"/>
          <line class="cls-18" x1="229.8" y1="370.29" x2="229.8" y2="365.84"/>
          <line class="cls-18" x1="203.55" y1="375.72" x2="203.55" y2="371.26"/>
          <line class="cls-18" x1="198.24" y1="370.04" x2="198.24" y2="365.59"/>
          <line class="cls-18" x1="194.17" y1="370.53" x2="194.17" y2="366.07"/>
        </g>
        <ellipse class="cls-23" cx="214.04" cy="359.92" rx="7.52" ry="13.03" transform="translate(-147.03 572.01) rotate(-89.69)"/>
      </g>
    </g>
  </g>
</svg>